#!OML:ASF H:\Male1\Project 1\Capture day 1\Session 1\Male1.ASF
:FULLY-SPECIFIED
:DEGREES
190
root 1.83976 23.474 0.916214 77.4147 -82.6803 -67.6687
lowerback 25.213 3.05293 5.26528
upperback 6.16552 5.0916 4.5447
thorax -7.09312 2.13527 0.468463
lowerneck 0.90216 12.3796 21.6824
upperneck -8.71126 16.3376 -19.6099
head 0.826174 8.09484 -8.94874
rclavicle -5.80451e-014 1.59028e-014
rhumerus -7.04719 49.981 -79.3178
rradius 89.2149
rwrist 26.05
rhand -22.1651 8.99855
rfingers 7.12502
rthumb 4.24938 -20.9388
lclavicle -5.80451e-014 1.59028e-014
lhumerus -34.0866 -1.2876 64.5934
lradius 101.919
lwrist 19.8404
lhand -45.9489 -11.2897
lfingers 7.12502
lthumb -18.6966 17.8318
rfemur -47.6816 2.47122 36.31
rtibia 71.3343
rfoot -26.8655 -11.0031
rtoes -24.2802
lfemur -13.6994 -3.46679 -16.2156
ltibia 29.5428
lfoot -8.7662 27.9441
ltoes -0.583851
191
root 1.78381 23.5812 0.902761 73.6465 -82.9224 -63.8709
lowerback 24.7379 2.99573 5.3448
upperback 6.14748 5.01276 4.50346
thorax -6.86309 2.11075 0.421768
lowerneck 0.754078 12.2883 21.4072
upperneck -8.47366 16.199 -19.5816
head 0.866486 8.0298 -8.89667
rclavicle -1.43125e-014 -1.03368e-014
rhumerus -7.74873 49.8763 -80.0998
rradius 87.7181
rwrist 25.7173
rhand -22.8967 9.50739
rfingers 7.12502
rthumb 3.54281 -20.4429
lclavicle -1.43125e-014 -1.03368e-014
lhumerus -33.5952 -1.88703 65.2993
lradius 99.993
lwrist 18.6276
lhand -46.8981 -11.1973
lfingers 7.12502
lthumb -19.6093 17.8338
rfemur -46.6161 1.98414 35.9282
rtibia 69.8736
rfoot -26.7236 -10.9445
rtoes -23.3911
lfemur -14.596 -2.30459 -16.7469
ltibia 32.3603
lfoot -8.68104 26.2249
ltoes -4.46921
192
root 1.73198 23.6923 0.88673 68.8331 -83.0946 -59.0696
lowerback 24.335 2.94082 5.43269
upperback 6.14438 4.94043 4.46177
thorax -6.6518 2.08771 0.364952
lowerneck 0.596489 12.1823 21.1192
upperneck -8.28754 16.0335 -19.5927
head 0.892058 7.95112 -8.85954
rclavicle -6.36111e-015 -6.75868e-014
rhumerus -8.37208 49.7174 -80.7582
rradius 86.233
rwrist 25.2941
rhand -23.5912 9.97528
rfingers 7.12502
rthumb 2.87221 -19.9851
lclavicle -6.36111e-015 -6.75868e-014
lhumerus -32.9706 -2.55598 66.0094
lradius 98.0219
lwrist 17.4743
lhand -47.8739 -11.0257
lfingers 7.12502
lthumb -20.5472 17.9069
rfemur -45.466 1.53696 35.5297
rtibia 68.3203
rfoot -26.543 -11.0128
rtoes -22.509
lfemur -15.471 -1.15901 -17.2548
ltibia 35.1656
lfoot -8.76407 24.5375
ltoes -7.55227
193
root 1.68457 23.8061 0.868039 62.8251 -83.1861 -53.113
lowerback 23.9925 2.88442 5.49079
upperback 6.16469 4.85962 4.42572
thorax -6.4486 2.05987 0.33103
lowerneck 0.431262 12.0656 20.8201
upperneck -8.13389 15.8492 -19.6552
head 0.91103 7.86349 -8.83962
rclavicle -3.57812e-014 -5.1684e-014
rhumerus -8.88194 49.5312 -81.254
rradius 84.769
rwrist 24.7841
rhand -24.227 10.3911
rfingers 7.12502
rthumb 2.25813 -19.5767
lclavicle -3.57812e-014 -5.1684e-014
lhumerus -32.2141 -3.25553 66.737
lradius 95.9998
lwrist 16.3786
lhand -48.8454 -10.7479
lfingers 7.12502
lthumb -21.4805 18.0811
rfemur -44.2626 1.13126 35.0723
rtibia 66.7097
rfoot -26.3392 -11.1537
rtoes -21.6651
lfemur -16.3162 -0.0460434 -17.7631
ltibia 37.9369
lfoot -9.14541 22.9221
ltoes -9.91674
194
root 1.64062 23.9231 0.846297 55.5973 -83.1599 -45.9798
lowerback 23.7304 2.8136 5.51441
upperback 6.19809 4.75547 4.3829
thorax -6.27509 2.01971 0.311988
lowerneck 0.24927 11.944 20.5183
upperneck -7.97814 15.6562 -19.7466
head 0.934808 7.77104 -8.82788
rclavicle 0 -5.40694e-014
rhumerus -9.30413 49.3099 -81.6352
rradius 83.3218
rwrist 24.2213
rhand -24.8465 10.7681
rfingers 7.12502
rthumb 1.65981 -19.2052
lclavicle 0 -5.40694e-014
lhumerus -31.3462 -3.9927 67.4484
lradius 93.937
lwrist 15.3624
lhand -49.7725 -10.3514
lfingers 7.12502
lthumb -22.3707 18.3733
rfemur -43.0126 0.754185 34.5386
rtibia 65.0631
rfoot -26.1226 -11.3478
rtoes -20.9196
lfemur -17.1118 0.995774 -18.2727
ltibia 40.6549
lfoot -9.73907 21.4701
ltoes -11.548
195
root 1.60051 24.0438 0.823314 47.3277 -82.9388 -37.8201
lowerback 23.5208 2.70439 5.53601
upperback 6.23921 4.60379 4.33221
thorax -6.12076 1.95587 0.295995
lowerneck 0.0551986 11.8228 20.2224
upperneck -7.82078 15.463 -19.8797
head 0.966064 7.67811 -8.82904
rclavicle 1.35174e-014 4.6118e-014
rhumerus -9.63079 49.0552 -81.899
rradius 81.884
rwrist 23.6166
rhand -25.5233 11.1405
rfingers 7.12502
rthumb 1.00614 -18.8368
lclavicle 1.35174e-014 4.6118e-014
lhumerus -30.3732 -4.76007 68.1427
lradius 91.8537
lwrist 14.4201
lhand -50.6134 -9.87453
lfingers 7.12502
lthumb -23.1777 18.751
rfemur -41.7655 0.343471 33.9301
rtibia 63.3926
rfoot -25.8997 -11.5751
rtoes -20.2409
lfemur -17.903 1.87338 -18.7821
ltibia 43.3179
lfoot -10.4301 20.2581
ltoes -12.7992
